<svg width="84" height="84" viewBox="0 0 84 84" fill="none" xmlns="http://www.w3.org/2000/svg">
<path d="M82 42C82 64.0914 64.0914 82 42 82C19.9086 82 2 64.0914 2 42C2 19.9086 19.9086 2 42 2C64.0914 2 82 19.9086 82 42Z" fill="#AEE8DE" stroke="#FF6F00" stroke-width="3"/>
<path d="M63.5923 45.5359C60.0731 43.7693 60.2837 37.7694 62.5395 34.3671C64.5623 31.3181 69.0439 30.2712 72.548 32.0313C76.0521 33.7913 77.2552 37.6909 75.2325 40.7399C72.9691 44.1488 67.1114 47.3091 63.5923 45.5359ZM50.8767 34.5176C46.3124 33.4511 44.4024 26.3781 45.8086 21.8242C47.0493 17.8003 51.8016 15.4056 56.4337 16.4852C61.0582 17.5647 63.8103 21.6999 62.5696 25.7304C61.1635 30.2843 55.4411 35.5841 50.8767 34.5176ZM21.5581 45.5556C18.0314 47.3287 12.1512 44.1619 9.88778 40.753C7.8575 37.6975 9.06063 33.7913 12.5798 32.0247C16.0914 30.2581 20.5881 31.305 22.6108 34.3606C24.8667 37.776 25.0847 43.7824 21.5581 45.5556ZM32.1681 34.5176C27.6038 35.5841 21.8814 30.2843 20.4828 25.7304C19.2421 21.7064 21.9867 17.5647 26.6187 16.4852C31.2508 15.4056 36.0031 17.7938 37.2438 21.8242C38.6425 26.3781 36.7325 33.4511 32.1681 34.5176ZM42.5752 37.547C50.9745 37.547 63.6223 48.6766 63.6223 57.6731C63.6223 63.6469 61.4943 67.0492 57.6744 68.2335C56.3585 68.6392 55.2681 68.7177 53.5913 68.6719C53.2604 68.6653 53.2003 68.6588 53.1025 68.6588C52.2227 68.6588 51.3429 68.4102 50.1173 67.926C49.7112 67.7624 49.2826 67.5792 48.6735 67.3109C49.1096 67.5007 47.5305 66.8071 47.1621 66.6501C45.9364 66.1201 44.9965 65.7537 44.1167 65.4855C43.4399 65.2761 42.8233 65.1387 42.2744 65.0732H42.876C42.327 65.1452 41.7179 65.2826 41.0337 65.492C40.1464 65.7668 39.2139 66.1267 37.9883 66.6632C37.6198 66.8202 36.0482 67.5203 36.4768 67.3306C35.8678 67.5988 35.4391 67.782 35.0331 67.9456C33.8149 68.4363 32.9276 68.685 32.0478 68.685C31.9501 68.685 31.8899 68.685 31.5591 68.6981C29.8822 68.7439 28.7919 68.6653 27.476 68.2597C23.656 67.0754 21.528 63.673 21.528 57.6993C21.528 48.7027 34.1759 37.547 42.5752 37.547Z" fill="#FF6F00"/>
<path d="M65.9234 42.3626C66.8182 42.8141 70.5704 40.7923 71.8187 38.9079C72.6834 37.6124 72.1721 35.9505 70.6757 35.198C69.1868 34.4456 67.2769 34.8905 66.4121 36.1926C65.1639 38.0835 65.0285 41.9177 65.9234 42.3626ZM51.9671 30.9778C53.5988 31.3573 57.6143 27.6409 58.5016 24.7816C59.1407 22.7075 57.7271 20.581 55.3434 20.0249C52.9597 19.4687 50.5158 20.6988 49.8767 22.7729C48.9894 25.6322 50.3279 30.5983 51.9671 30.9778ZM19.2571 42.3822C20.1595 41.9308 20.0241 38.0835 18.7684 36.1926C17.9036 34.8905 15.9862 34.4456 14.4898 35.198C12.9934 35.9505 12.4821 37.6189 13.3468 38.921C14.595 40.8119 18.3548 42.8337 19.2571 42.3822ZM31.0779 30.9778C32.7096 30.5983 34.0556 25.6257 33.1758 22.7664C32.5366 20.6923 30.0928 19.4622 27.7091 20.0184C25.3254 20.5745 23.9117 22.701 24.5509 24.7751C25.4307 27.6409 29.4461 31.3573 31.0779 30.9778ZM42.5752 41.211C36.5145 41.211 25.739 50.7114 25.739 57.6928C25.739 62.2532 26.9571 64.203 28.8821 64.805C29.5739 65.0209 30.2432 65.0667 31.4313 65.034C31.8223 65.0209 31.89 65.0209 32.0479 65.0209C32.3411 65.0209 32.3261 65.0274 36.1084 63.3852C37.477 62.7897 38.5523 62.371 39.6351 62.0373C40.56 61.756 41.4322 61.5531 42.2744 61.4484L42.5752 61.4092L42.876 61.4484C43.7182 61.5531 44.5829 61.7494 45.5078 62.0308C46.5906 62.3579 47.6659 62.7767 49.0345 63.3721C52.8168 65.0078 52.8018 65.0013 53.095 65.0013C53.2605 65.0013 53.3206 65.0013 53.7116 65.0144C54.8997 65.0471 55.569 65.0013 56.2608 64.7853C58.1858 64.1899 59.4039 62.2336 59.4039 57.6731C59.4114 50.6918 48.6435 41.211 42.5752 41.211Z" fill="#FFFAF2"/>
</svg>
